<?xml version="1.0" encoding="iso-8859-1"?>
<!-- Generator: Adobe Illustrator 18.1.1, SVG Export Plug-In . SVG Version: 6.00 Build 0)  -->
<svg version="1.1" id="Capa_1" xmlns="http://www.w3.org/2000/svg" xmlns:xlink="http://www.w3.org/1999/xlink" x="0px" y="0px"
	 viewBox="0 0 62.141 62.141" style="enable-background:new 0 0 62.141 62.141;" xml:space="preserve">
<g>
	<g>
		<circle style="fill:#010002;" cx="25.496" cy="5.667" r="5.667"/>
		<path style="fill:#010002;" d="M46.002,30.756c-0.042-0.786-0.941-2.689-1.143-3.081c-2.305-4.489-4.717-8.929-7.265-13.287
			c-3.857-6.601-14.113-0.606-10.239,6.016c0.113,0.193,0.222,0.39,0.335,0.586c-2.353,3.001-5.896,4.117-10.311,3.655
			c-2.712-0.284-3.355,2.835-1.984,4.549v32.947h1.985V30.254c5.359,0.561,9.869-0.983,13.177-4.194
			c1.348,2.448,2.662,4.915,3.94,7.396l-8.385,8.023c-1.104,1.056-1.549,2.627-1.168,4.104c1.026,3.974,3.021,11.708,3.563,13.852
			c1.097,4.346,7.97,3.104,6.869-1.263c-1.028-4.079-2.504-8.777-3.536-12.854c-0.013-0.049-0.029-0.091-0.043-0.138
			c0.043,0.138,7.621-6.645,7.621-6.645c0.352,6.797,0.697,14.014,1.045,20.304c0.253,4.495,7.226,4.145,6.974-0.362
			C46.959,49.816,46.481,39.412,46.002,30.756z"/>
	</g>
</g>
<g>
</g>
<g>
</g>
<g>
</g>
<g>
</g>
<g>
</g>
<g>
</g>
<g>
</g>
<g>
</g>
<g>
</g>
<g>
</g>
<g>
</g>
<g>
</g>
<g>
</g>
<g>
</g>
<g>
</g>
</svg>
